<mxfile host="drawio-plugin" agent="Mozilla/5.0 (Macintosh; Intel Mac OS X 10_15_7) AppleWebKit/537.36 (KHTML, like Gecko) Chrome/122.0.0.0 Safari/537.36" modified="2024-08-31T02:15:00.578Z" version="22.1.22" etag="AfZSg83V0WQfa6TAImGD" type="embed">
  <diagram id="R2lEEEUBdFMjLlhIrx00" name="Page-1">
    <mxGraphModel dx="1003" dy="799" grid="1" gridSize="10" guides="1" tooltips="1" connect="1" arrows="1" fold="1" page="1" pageScale="1" pageWidth="850" pageHeight="1100" math="0" shadow="0" extFonts="Permanent Marker^https://fonts.googleapis.com/css?family=Permanent+Marker">
      <root>
        <mxCell id="0" />
        <mxCell id="1" parent="0" />
        <mxCell id="xTQfs5T80yT4qUn2D3Ki-52" value="Customer" style="swimlane;childLayout=stackLayout;horizontal=1;startSize=50;horizontalStack=0;rounded=1;fontSize=14;fontStyle=0;strokeWidth=2;resizeParent=0;resizeLast=1;shadow=0;dashed=0;align=center;arcSize=4;whiteSpace=wrap;html=1;" parent="1" vertex="1">
          <mxGeometry x="480" y="445" width="200" height="155" as="geometry">
            <mxRectangle x="480" y="445" width="100" height="50" as="alternateBounds" />
          </mxGeometry>
        </mxCell>
        <mxCell id="xTQfs5T80yT4qUn2D3Ki-53" value="PK |&lt;span style=&quot;white-space: pre;&quot;&gt;&#x9;&lt;/span&gt;CustomerId INT NOT NULL&lt;div&gt;FK | EmailId&lt;/div&gt;&lt;div&gt;+ first_name&lt;/div&gt;&lt;div&gt;+ last_name&lt;/div&gt;&lt;div&gt;+ address&lt;/div&gt;&lt;div&gt;+ telephone_number&lt;/div&gt;" style="align=left;strokeColor=none;fillColor=none;spacingLeft=4;fontSize=12;verticalAlign=top;resizable=0;rotatable=0;part=1;html=1;" parent="xTQfs5T80yT4qUn2D3Ki-52" vertex="1">
          <mxGeometry y="50" width="200" height="105" as="geometry" />
        </mxCell>
        <mxCell id="xTQfs5T80yT4qUn2D3Ki-54" value="Reservation" style="swimlane;childLayout=stackLayout;horizontal=1;startSize=50;horizontalStack=0;rounded=1;fontSize=14;fontStyle=0;strokeWidth=2;resizeParent=0;resizeLast=1;shadow=0;dashed=0;align=center;arcSize=4;whiteSpace=wrap;html=1;" parent="1" vertex="1">
          <mxGeometry x="760" y="445" width="170" height="135" as="geometry" />
        </mxCell>
        <mxCell id="xTQfs5T80yT4qUn2D3Ki-55" value="&lt;div&gt;PK | ReservationId INT&lt;/div&gt;FK | CustomerId&amp;nbsp; INT&lt;div&gt;FK | RoomId INT&lt;/div&gt;&lt;div&gt;+&amp;nbsp; NumberOfGuests&lt;/div&gt;&lt;div&gt;+ PaymentID&lt;/div&gt;" style="align=left;strokeColor=none;fillColor=none;spacingLeft=4;fontSize=12;verticalAlign=top;resizable=0;rotatable=0;part=1;html=1;" parent="xTQfs5T80yT4qUn2D3Ki-54" vertex="1">
          <mxGeometry y="50" width="170" height="85" as="geometry" />
        </mxCell>
        <mxCell id="xTQfs5T80yT4qUn2D3Ki-56" value="Room" style="swimlane;childLayout=stackLayout;horizontal=1;startSize=50;horizontalStack=0;rounded=1;fontSize=14;fontStyle=0;strokeWidth=2;resizeParent=0;resizeLast=1;shadow=0;dashed=0;align=center;arcSize=4;whiteSpace=wrap;html=1;" parent="1" vertex="1">
          <mxGeometry x="1050" y="445" width="160" height="135" as="geometry" />
        </mxCell>
        <mxCell id="xTQfs5T80yT4qUn2D3Ki-57" value="&lt;div&gt;PK | RoomId INT&lt;/div&gt;FK | RoomTypeId INT&lt;br&gt;+ RoomCapacity&lt;br&gt;&lt;span style=&quot;background-color: initial;&quot;&gt;+&amp;nbsp;&lt;/span&gt;" style="align=left;strokeColor=none;fillColor=none;spacingLeft=4;fontSize=12;verticalAlign=top;resizable=0;rotatable=0;part=1;html=1;" parent="xTQfs5T80yT4qUn2D3Ki-56" vertex="1">
          <mxGeometry y="50" width="160" height="85" as="geometry" />
        </mxCell>
        <mxCell id="xTQfs5T80yT4qUn2D3Ki-60" value="Session" style="swimlane;childLayout=stackLayout;horizontal=1;startSize=50;horizontalStack=0;rounded=1;fontSize=14;fontStyle=0;strokeWidth=2;resizeParent=0;resizeLast=1;shadow=0;dashed=0;align=center;arcSize=4;whiteSpace=wrap;html=1;" parent="1" vertex="1">
          <mxGeometry x="60" y="20" width="190" height="120" as="geometry" />
        </mxCell>
        <mxCell id="xTQfs5T80yT4qUn2D3Ki-61" value="PK | SessionId INT&lt;div&gt;FK | Customer_Id INT&lt;/div&gt;&lt;div&gt;+ Token VARCHAR(64)&lt;/div&gt;&lt;div&gt;+ Expiration DATETIME&lt;/div&gt;" style="align=left;strokeColor=none;fillColor=none;spacingLeft=4;fontSize=12;verticalAlign=top;resizable=0;rotatable=0;part=1;html=1;" parent="xTQfs5T80yT4qUn2D3Ki-60" vertex="1">
          <mxGeometry y="50" width="190" height="70" as="geometry" />
        </mxCell>
        <mxCell id="xTQfs5T80yT4qUn2D3Ki-62" value="Confirmation" style="swimlane;childLayout=stackLayout;horizontal=1;startSize=50;horizontalStack=0;rounded=1;fontSize=14;fontStyle=0;strokeWidth=2;resizeParent=0;resizeLast=1;shadow=0;dashed=0;align=center;arcSize=4;whiteSpace=wrap;html=1;" parent="1" vertex="1">
          <mxGeometry x="60" y="170" width="190" height="120" as="geometry" />
        </mxCell>
        <mxCell id="xTQfs5T80yT4qUn2D3Ki-63" value="PK | ConfirmationId INT&lt;br&gt;FK | CustomerId INT&lt;br&gt;+ GUID CHAR(36)" style="align=left;strokeColor=none;fillColor=none;spacingLeft=4;fontSize=12;verticalAlign=top;resizable=0;rotatable=0;part=1;html=1;" parent="xTQfs5T80yT4qUn2D3Ki-62" vertex="1">
          <mxGeometry y="50" width="190" height="70" as="geometry" />
        </mxCell>
        <mxCell id="xTQfs5T80yT4qUn2D3Ki-66" value="PasswordReset" style="swimlane;childLayout=stackLayout;horizontal=1;startSize=50;horizontalStack=0;rounded=1;fontSize=14;fontStyle=0;strokeWidth=2;resizeParent=0;resizeLast=1;shadow=0;dashed=0;align=center;arcSize=4;whiteSpace=wrap;html=1;" parent="1" vertex="1">
          <mxGeometry x="60" y="320" width="190" height="120" as="geometry" />
        </mxCell>
        <mxCell id="xTQfs5T80yT4qUn2D3Ki-67" value="PK | PasswordResetId INT&lt;br&gt;FK | CustomerID INT&lt;br&gt;+ GUID CHAR(36)&lt;div&gt;+ Expiration DATETIME&lt;/div&gt;" style="align=left;strokeColor=none;fillColor=none;spacingLeft=4;fontSize=12;verticalAlign=top;resizable=0;rotatable=0;part=1;html=1;" parent="xTQfs5T80yT4qUn2D3Ki-66" vertex="1">
          <mxGeometry y="50" width="190" height="70" as="geometry" />
        </mxCell>
        <mxCell id="xTQfs5T80yT4qUn2D3Ki-68" style="edgeStyle=orthogonalEdgeStyle;rounded=0;orthogonalLoop=1;jettySize=auto;html=1;exitX=0;exitY=0.25;exitDx=0;exitDy=0;entryX=1;entryY=0.25;entryDx=0;entryDy=0;dashed=1;endArrow=ERoneToMany;endFill=0;" parent="1" source="xTQfs5T80yT4qUn2D3Ki-81" target="xTQfs5T80yT4qUn2D3Ki-61" edge="1">
          <mxGeometry relative="1" as="geometry">
            <Array as="points">
              <mxPoint x="480" y="260" />
              <mxPoint x="380" y="260" />
              <mxPoint x="380" y="88" />
            </Array>
          </mxGeometry>
        </mxCell>
        <mxCell id="xTQfs5T80yT4qUn2D3Ki-70" style="edgeStyle=orthogonalEdgeStyle;rounded=0;orthogonalLoop=1;jettySize=auto;html=1;exitX=0;exitY=0.5;exitDx=0;exitDy=0;entryX=1;entryY=0.25;entryDx=0;entryDy=0;dashed=1;endArrow=ERoneToMany;endFill=0;" parent="1" source="xTQfs5T80yT4qUn2D3Ki-82" target="xTQfs5T80yT4qUn2D3Ki-67" edge="1">
          <mxGeometry relative="1" as="geometry">
            <Array as="points">
              <mxPoint x="480" y="320" />
              <mxPoint x="350" y="320" />
              <mxPoint x="350" y="388" />
            </Array>
          </mxGeometry>
        </mxCell>
        <mxCell id="xTQfs5T80yT4qUn2D3Ki-73" style="edgeStyle=orthogonalEdgeStyle;rounded=0;orthogonalLoop=1;jettySize=auto;html=1;exitX=1;exitY=0.25;exitDx=0;exitDy=0;entryX=0;entryY=0.5;entryDx=0;entryDy=0;endArrow=ERoneToMany;endFill=0;dashed=1;" parent="1" source="xTQfs5T80yT4qUn2D3Ki-53" target="xTQfs5T80yT4qUn2D3Ki-54" edge="1">
          <mxGeometry relative="1" as="geometry" />
        </mxCell>
        <mxCell id="xTQfs5T80yT4qUn2D3Ki-74" style="edgeStyle=orthogonalEdgeStyle;rounded=0;orthogonalLoop=1;jettySize=auto;html=1;exitX=0.004;exitY=0.366;exitDx=0;exitDy=0;entryX=0.996;entryY=0.354;entryDx=0;entryDy=0;entryPerimeter=0;dashed=1;endArrow=ERoneToMany;endFill=0;exitPerimeter=0;" parent="1" source="xTQfs5T80yT4qUn2D3Ki-57" target="xTQfs5T80yT4qUn2D3Ki-55" edge="1">
          <mxGeometry relative="1" as="geometry" />
        </mxCell>
        <mxCell id="xTQfs5T80yT4qUn2D3Ki-75" value="ImageStore" style="swimlane;childLayout=stackLayout;horizontal=1;startSize=50;horizontalStack=0;rounded=1;fontSize=14;fontStyle=0;strokeWidth=2;resizeParent=0;resizeLast=1;shadow=0;dashed=0;align=center;arcSize=4;whiteSpace=wrap;html=1;" parent="1" vertex="1">
          <mxGeometry x="1050" y="60" width="170" height="140" as="geometry" />
        </mxCell>
        <mxCell id="xTQfs5T80yT4qUn2D3Ki-76" value="PK | ImageId INT&lt;br&gt;+ ImageData MEDIUMBLOB&lt;div&gt;+ ImageType VARCHAR(50)&lt;/div&gt;&lt;div&gt;+ EntityId INT&lt;/div&gt;&lt;div&gt;+ EntityType VARCHAR(50)&lt;/div&gt;" style="align=left;strokeColor=none;fillColor=none;spacingLeft=4;fontSize=12;verticalAlign=top;resizable=0;rotatable=0;part=1;html=1;" parent="xTQfs5T80yT4qUn2D3Ki-75" vertex="1">
          <mxGeometry y="50" width="170" height="90" as="geometry" />
        </mxCell>
        <mxCell id="xTQfs5T80yT4qUn2D3Ki-77" value="RoomType" style="swimlane;childLayout=stackLayout;horizontal=1;startSize=50;horizontalStack=0;rounded=1;fontSize=14;fontStyle=0;strokeWidth=2;resizeParent=0;resizeLast=1;shadow=0;dashed=0;align=center;arcSize=4;whiteSpace=wrap;html=1;" parent="1" vertex="1">
          <mxGeometry x="1320" y="440" width="160" height="140" as="geometry" />
        </mxCell>
        <mxCell id="xTQfs5T80yT4qUn2D3Ki-78" value="PK | RoomTypeID INT&lt;br&gt;+ PrimaryImageId INT&lt;div&gt;+ view&lt;/div&gt;&lt;div&gt;+ bedding&lt;/div&gt;&lt;div&gt;+base_price&lt;/div&gt;" style="align=left;strokeColor=none;fillColor=none;spacingLeft=4;fontSize=12;verticalAlign=top;resizable=0;rotatable=0;part=1;html=1;" parent="xTQfs5T80yT4qUn2D3Ki-77" vertex="1">
          <mxGeometry y="50" width="160" height="90" as="geometry" />
        </mxCell>
        <mxCell id="xTQfs5T80yT4qUn2D3Ki-80" style="edgeStyle=orthogonalEdgeStyle;rounded=0;orthogonalLoop=1;jettySize=auto;html=1;exitX=0.5;exitY=0;exitDx=0;exitDy=0;entryX=1.004;entryY=0.146;entryDx=0;entryDy=0;entryPerimeter=0;endArrow=none;endFill=0;startArrow=ERoneToMany;startFill=0;" parent="1" source="xTQfs5T80yT4qUn2D3Ki-77" target="xTQfs5T80yT4qUn2D3Ki-76" edge="1">
          <mxGeometry relative="1" as="geometry" />
        </mxCell>
        <mxCell id="xTQfs5T80yT4qUn2D3Ki-81" value="User" style="swimlane;childLayout=stackLayout;horizontal=1;startSize=50;horizontalStack=0;rounded=1;fontSize=14;fontStyle=0;strokeWidth=2;resizeParent=0;resizeLast=1;shadow=0;dashed=0;align=center;arcSize=4;whiteSpace=wrap;html=1;" parent="1" vertex="1">
          <mxGeometry x="480" y="240" width="160" height="140" as="geometry" />
        </mxCell>
        <mxCell id="xTQfs5T80yT4qUn2D3Ki-82" value="PK | UserId INT&lt;br&gt;FK | CustomerId INT&lt;br&gt;FK | EmailId INT&lt;br&gt;&lt;div&gt;+&amp;nbsp;&lt;/div&gt;&lt;div&gt;+&amp;nbsp;&lt;/div&gt;" style="align=left;strokeColor=none;fillColor=none;spacingLeft=4;fontSize=12;verticalAlign=top;resizable=0;rotatable=0;part=1;html=1;" parent="xTQfs5T80yT4qUn2D3Ki-81" vertex="1">
          <mxGeometry y="50" width="160" height="90" as="geometry" />
        </mxCell>
        <mxCell id="xTQfs5T80yT4qUn2D3Ki-83" style="edgeStyle=orthogonalEdgeStyle;rounded=0;orthogonalLoop=1;jettySize=auto;html=1;exitX=0.5;exitY=1;exitDx=0;exitDy=0;entryX=0.5;entryY=0;entryDx=0;entryDy=0;endArrow=ERmandOne;endFill=0;" parent="1" source="xTQfs5T80yT4qUn2D3Ki-82" target="xTQfs5T80yT4qUn2D3Ki-52" edge="1">
          <mxGeometry relative="1" as="geometry" />
        </mxCell>
        <mxCell id="xTQfs5T80yT4qUn2D3Ki-86" value="Email" style="swimlane;childLayout=stackLayout;horizontal=1;startSize=50;horizontalStack=0;rounded=1;fontSize=14;fontStyle=0;strokeWidth=2;resizeParent=0;resizeLast=1;shadow=0;dashed=0;align=center;arcSize=4;whiteSpace=wrap;html=1;" parent="1" vertex="1">
          <mxGeometry x="50" y="480" width="190" height="100" as="geometry" />
        </mxCell>
        <mxCell id="xTQfs5T80yT4qUn2D3Ki-87" value="PK | EmailId INT NOTNULL&lt;div&gt;+ EmailAddress VARCHAR(255)&lt;/div&gt;" style="align=left;strokeColor=none;fillColor=none;spacingLeft=4;fontSize=12;verticalAlign=top;resizable=0;rotatable=0;part=1;html=1;" parent="xTQfs5T80yT4qUn2D3Ki-86" vertex="1">
          <mxGeometry y="50" width="190" height="50" as="geometry" />
        </mxCell>
        <mxCell id="xTQfs5T80yT4qUn2D3Ki-88" style="edgeStyle=orthogonalEdgeStyle;rounded=0;orthogonalLoop=1;jettySize=auto;html=1;exitX=0;exitY=0.75;exitDx=0;exitDy=0;entryX=1;entryY=0.25;entryDx=0;entryDy=0;endArrow=ERmandOne;endFill=0;" parent="1" source="xTQfs5T80yT4qUn2D3Ki-82" target="xTQfs5T80yT4qUn2D3Ki-86" edge="1">
          <mxGeometry relative="1" as="geometry">
            <Array as="points">
              <mxPoint x="380" y="342" />
              <mxPoint x="380" y="485" />
            </Array>
          </mxGeometry>
        </mxCell>
        <mxCell id="xTQfs5T80yT4qUn2D3Ki-89" style="edgeStyle=orthogonalEdgeStyle;rounded=0;orthogonalLoop=1;jettySize=auto;html=1;exitX=0;exitY=0.5;exitDx=0;exitDy=0;entryX=1;entryY=0.5;entryDx=0;entryDy=0;endArrow=ERmandOne;endFill=0;" parent="1" source="xTQfs5T80yT4qUn2D3Ki-53" target="xTQfs5T80yT4qUn2D3Ki-87" edge="1">
          <mxGeometry relative="1" as="geometry">
            <Array as="points">
              <mxPoint x="480" y="535" />
            </Array>
          </mxGeometry>
        </mxCell>
        <mxCell id="xTQfs5T80yT4qUn2D3Ki-90" style="edgeStyle=orthogonalEdgeStyle;rounded=0;orthogonalLoop=1;jettySize=auto;html=1;exitX=0;exitY=0;exitDx=0;exitDy=0;entryX=1;entryY=0.25;entryDx=0;entryDy=0;dashed=1;endArrow=ERoneToMany;endFill=0;" parent="1" source="xTQfs5T80yT4qUn2D3Ki-82" target="xTQfs5T80yT4qUn2D3Ki-63" edge="1">
          <mxGeometry relative="1" as="geometry">
            <Array as="points">
              <mxPoint x="350" y="290" />
              <mxPoint x="350" y="238" />
            </Array>
          </mxGeometry>
        </mxCell>
        <mxCell id="xTQfs5T80yT4qUn2D3Ki-97" value="" style="edgeStyle=orthogonalEdgeStyle;rounded=0;orthogonalLoop=1;jettySize=auto;html=1;endArrow=ERoneToMany;endFill=0;" parent="1" source="xTQfs5T80yT4qUn2D3Ki-78" target="xTQfs5T80yT4qUn2D3Ki-57" edge="1">
          <mxGeometry relative="1" as="geometry" />
        </mxCell>
        <mxCell id="17" value="Payment" style="swimlane;childLayout=stackLayout;horizontal=1;startSize=50;horizontalStack=0;rounded=1;fontSize=14;fontStyle=0;strokeWidth=2;resizeParent=0;resizeLast=1;shadow=0;dashed=0;align=center;arcSize=4;whiteSpace=wrap;html=1;" parent="1" vertex="1">
          <mxGeometry x="360" y="645" width="190" height="155" as="geometry" />
        </mxCell>
        <mxCell id="20" style="edgeStyle=orthogonalEdgeStyle;rounded=0;orthogonalLoop=1;jettySize=auto;html=1;exitX=0.5;exitY=1;exitDx=0;exitDy=0;entryX=0.995;entryY=0.411;entryDx=0;entryDy=0;entryPerimeter=0;" parent="17" edge="1">
          <mxGeometry relative="1" as="geometry">
            <mxPoint x="190" y="86.99000000000001" as="targetPoint" />
            <mxPoint x="510.95000000000005" y="-65" as="sourcePoint" />
            <Array as="points">
              <mxPoint x="440" y="-65" />
              <mxPoint x="440" y="85" />
              <mxPoint x="190" y="85" />
            </Array>
          </mxGeometry>
        </mxCell>
        <mxCell id="18" value="PK | PaymentID INT NOT NULL&lt;div&gt;FK | ReservationId&lt;br&gt;&lt;div&gt;FK | EmailAddress Varchar&lt;/div&gt;&lt;div&gt;+ amount&lt;/div&gt;&lt;div&gt;+ payment_date&lt;/div&gt;&lt;div&gt;+ payment_method&lt;/div&gt;&lt;/div&gt;" style="align=left;strokeColor=none;fillColor=none;spacingLeft=4;fontSize=12;verticalAlign=top;resizable=0;rotatable=0;part=1;html=1;" parent="17" vertex="1">
          <mxGeometry y="50" width="190" height="105" as="geometry" />
        </mxCell>
      </root>
    </mxGraphModel>
  </diagram>
</mxfile>
